<svg xmlns="http://www.w3.org/2000/svg" xmlns:xlink="http://www.w3.org/1999/xlink" width="70" height="70" viewBox="0 0 70 70">
  <defs>
    <clipPath id="clip-path">
      <rect id="Rectangle_5239" data-name="Rectangle 5239" width="58.176" height="70" fill="#fff"/>
    </clipPath>
  </defs>
  <g id="Group_11007" data-name="Group 11007" transform="translate(-252 -525)">
    <g id="Group_10998" data-name="Group 10998" transform="translate(21 258)">
      <rect id="Rectangle_2832" data-name="Rectangle 2832" width="70" height="70" transform="translate(231 267)" fill="none"/>
      <g id="Group_11053" data-name="Group 11053" transform="translate(236.912 267)" clip-path="url(#clip-path)">
        <path id="Path_235052" data-name="Path 235052" d="M19.367,99.346a2.4,2.4,0,0,1-2.073-1.2l-.744-1.289a11.186,11.186,0,0,1-4.315,0L11.49,98.15a2.391,2.391,0,0,1-3.267.876L6.169,97.84a2.394,2.394,0,0,1-.876-3.267l.741-1.283a11.123,11.123,0,0,1-2.157-3.744H2.392A2.394,2.394,0,0,1,0,87.155V84.783a2.4,2.4,0,0,1,2.392-2.392H3.877a11.118,11.118,0,0,1,2.157-3.744l-.74-1.283A2.4,2.4,0,0,1,6.169,74.1l2.054-1.186a2.39,2.39,0,0,1,3.267.875l.745,1.289a11.2,11.2,0,0,1,4.315,0l.744-1.289a2.391,2.391,0,0,1,3.268-.875L22.615,74.1a2.4,2.4,0,0,1,.876,3.267l-.741,1.283a11.115,11.115,0,0,1,2.157,3.744h1.485a2.4,2.4,0,0,1,2.392,2.392v2.372a2.394,2.394,0,0,1-2.392,2.391H24.907A11.118,11.118,0,0,1,22.75,93.29l.741,1.282a2.394,2.394,0,0,1-.876,3.267l-2.053,1.186A2.393,2.393,0,0,1,19.367,99.346Zm-1.941-4.541,1.415,2.451a.608.608,0,0,0,.525.3.6.6,0,0,0,.3-.081l2.053-1.186a.605.605,0,0,0,.222-.826L20.53,93.021l.481-.485a9.318,9.318,0,0,0,2.372-4.117l.179-.66h2.83a.605.605,0,0,0,.6-.6V84.783a.605.605,0,0,0-.6-.6h-2.83l-.179-.66A9.315,9.315,0,0,0,21.012,79.4l-.481-.485,1.413-2.447a.605.605,0,0,0-.222-.826L19.668,74.46a.6.6,0,0,0-.3-.081.608.608,0,0,0-.525.3l-1.415,2.451-.66-.173a9.373,9.373,0,0,0-4.75,0l-.659.173L9.942,74.681a.607.607,0,0,0-.524-.3.6.6,0,0,0-.3.081L7.063,75.645a.605.605,0,0,0-.222.826l1.412,2.447-.481.485A9.318,9.318,0,0,0,5.4,83.519l-.179.66H2.392a.605.605,0,0,0-.6.6v2.372a.605.605,0,0,0,.6.6h2.83l.179.66a9.322,9.322,0,0,0,2.372,4.117l.481.485L6.841,95.466a.605.605,0,0,0,.221.826l2.054,1.186a.6.6,0,0,0,.3.081.607.607,0,0,0,.525-.3l1.416-2.451.66.173a9.36,9.36,0,0,0,4.749,0Z" transform="translate(0 -29.347)" fill="#fff"/>
        <path id="Path_235053" data-name="Path 235053" d="M59.842,64.483a2.9,2.9,0,0,1-2.5-1.444l-1.1-1.9a14.531,14.531,0,0,1-6.038,0l-1.1,1.9A2.886,2.886,0,0,1,45.168,64.1l-2.732-1.578a2.89,2.89,0,0,1-1.056-3.943l1.091-1.89a14.491,14.491,0,0,1-3.018-5.238H37.264a2.89,2.89,0,0,1-2.887-2.887V45.407a2.89,2.89,0,0,1,2.887-2.886h2.188a14.489,14.489,0,0,1,3.018-5.238l-1.091-1.89a2.886,2.886,0,0,1,1.057-3.943l2.732-1.577a2.886,2.886,0,0,1,3.943,1.057l1.1,1.9a14.531,14.531,0,0,1,6.038,0l1.1-1.9a2.886,2.886,0,0,1,3.943-1.057l2.732,1.578a2.886,2.886,0,0,1,1.057,3.943l-1.091,1.89A14.5,14.5,0,0,1,67,42.52h2.188a2.89,2.89,0,0,1,2.886,2.886v3.154a2.89,2.89,0,0,1-2.886,2.887H67a14.5,14.5,0,0,1-3.018,5.237l1.091,1.89a2.89,2.89,0,0,1-1.057,3.943L61.284,64.1A2.888,2.888,0,0,1,59.842,64.483Zm-2.724-5.4,1.77,3.065a1.1,1.1,0,0,0,.954.55,1.083,1.083,0,0,0,.548-.147l2.731-1.577a1.1,1.1,0,0,0,.4-1.5l-1.766-3.057.481-.485A12.7,12.7,0,0,0,65.47,50.32l.179-.659h3.538a1.1,1.1,0,0,0,1.1-1.1V45.407a1.1,1.1,0,0,0-1.1-1.1H65.649l-.179-.659a12.7,12.7,0,0,0-3.231-5.606l-.481-.485L63.524,34.5a1.1,1.1,0,0,0-.4-1.5L60.39,31.42a1.1,1.1,0,0,0-1.5.4l-1.769,3.065-.66-.173a12.742,12.742,0,0,0-6.467,0l-.66.173-1.77-3.065a1.1,1.1,0,0,0-.954-.55,1.083,1.083,0,0,0-.548.147L43.329,33a1.1,1.1,0,0,0-.4,1.5l1.765,3.058-.481.485a12.69,12.69,0,0,0-3.23,5.606l-.179.66H37.264a1.1,1.1,0,0,0-1.1,1.1v3.154a1.1,1.1,0,0,0,1.1,1.1H40.8l.179.66a12.692,12.692,0,0,0,3.23,5.606l.481.485-1.765,3.058a1.1,1.1,0,0,0,.4,1.5l2.732,1.577a1.1,1.1,0,0,0,1.5-.4l1.77-3.065.66.173a12.742,12.742,0,0,0,6.467,0Z" transform="translate(-13.898 -11.92)" fill="#fff"/>
        <path id="Path_235054" data-name="Path 235054" d="M10.451,27.467a2.372,2.372,0,0,1-1.029-.233l-2.14-1.022a2.391,2.391,0,0,1-1.129-3.188l.64-1.34a11.114,11.114,0,0,1-2.45-3.559l-1.476.116c-.063,0-.126.007-.189.007A2.391,2.391,0,0,1,.3,16.042L.109,13.678a2.392,2.392,0,0,1,2.2-2.572L3.79,10.99A11.177,11.177,0,0,1,5.649,7.1L4.806,5.868a2.394,2.394,0,0,1,.616-3.325L7.377,1.2a2.392,2.392,0,0,1,3.326.617l.838,1.22a11.009,11.009,0,0,1,2.99-.413A11.154,11.154,0,0,1,15.85,2.7l.64-1.34A2.4,2.4,0,0,1,18.649,0a2.372,2.372,0,0,1,1.029.233l2.141,1.021a2.4,2.4,0,0,1,1.129,3.189l-.64,1.341a11.117,11.117,0,0,1,2.45,3.559l1.477-.116a2.392,2.392,0,0,1,2.572,2.2l.186,2.364a2.392,2.392,0,0,1-2.2,2.572l-1.483.117a11.177,11.177,0,0,1-1.858,3.895l.843,1.227a2.4,2.4,0,0,1-.617,3.326l-1.954,1.343a2.38,2.38,0,0,1-1.353.421h0A2.393,2.393,0,0,1,18.4,25.651l-.839-1.221a11.012,11.012,0,0,1-2.99.413,11.142,11.142,0,0,1-1.318-.079l-.64,1.34A2.4,2.4,0,0,1,10.451,27.467ZM5.542,16.237l.23.643a9.315,9.315,0,0,0,2.694,3.914l.518.446L7.766,23.793a.6.6,0,0,0,.285.805l2.14,1.022A.6.6,0,0,0,11,25.335l1.219-2.554.672.123a9.389,9.389,0,0,0,1.679.152,9.247,9.247,0,0,0,3.057-.52l.645-.225,1.6,2.328a.606.606,0,0,0,.5.262h0a.6.6,0,0,0,.341-.107l1.955-1.343a.605.605,0,0,0,.156-.841l-1.6-2.332.44-.521A9.377,9.377,0,0,0,23.7,15.47l.128-.67,2.821-.222a.6.6,0,0,0,.556-.651l-.186-2.363a.607.607,0,0,0-.6-.558l-.049,0-2.815.222-.23-.643a9.319,9.319,0,0,0-2.694-3.914l-.518-.446,1.219-2.554a.605.605,0,0,0-.286-.806l-2.14-1.021a.6.6,0,0,0-.806.285L16.883,4.686l-.672-.122a9.4,9.4,0,0,0-1.679-.152,9.24,9.24,0,0,0-3.058.52l-.645.225L9.23,2.829a.6.6,0,0,0-.841-.156L6.435,4.016a.605.605,0,0,0-.156.84l1.6,2.334-.44.521A9.377,9.377,0,0,0,5.4,12l-.128.67-2.822.221a.6.6,0,0,0-.555.65L2.077,15.9a.606.606,0,0,0,.6.557l.049,0Z" transform="translate(-0.041 0)" fill="#fff"/>
        <path id="Ellipse_150" data-name="Ellipse 150" d="M3.262-1.5A4.762,4.762,0,1,1-1.5,3.262,4.768,4.768,0,0,1,3.262-1.5Zm0,7.737A2.975,2.975,0,1,0,.287,3.262,2.978,2.978,0,0,0,3.262,6.237Z" transform="translate(11.247 10.471)" fill="#fff"/>
        <path id="Path_235055" data-name="Path 235055" d="M20.928,87.053a4.762,4.762,0,1,1-4.762,4.762A4.768,4.768,0,0,1,20.928,87.053Zm0,7.737a2.975,2.975,0,1,0-2.974-2.975A2.978,2.978,0,0,0,20.928,94.79Z" transform="translate(-6.536 -35.193)" fill="#fff"/>
        <path id="Ellipse_151" data-name="Ellipse 151" d="M2.873-1.5A4.373,4.373,0,1,1-1.5,2.873,4.378,4.378,0,0,1,2.873-1.5Zm0,6.959A2.586,2.586,0,1,0,.287,2.873,2.589,2.589,0,0,0,2.873,5.459Z" transform="translate(36.455 32.19)" fill="#fff"/>
      </g>
    </g>
  </g>
</svg>
